<svg width="52" height="52" viewBox="0 0 52 52" fill="none" xmlns="http://www.w3.org/2000/svg">
<rect width="52" height="52" fill="#E5E5E5"/>
<g id="Food delivery landing page" clip-path="url(#clip0_0_1)">
<rect width="1440" height="7220" transform="translate(-386 -2656)" fill="white"/>
<g id="Feature 01">
<g id="Card">
<g id="Card 01">
<rect id="Base" x="-250.4" y="-350.4" width="368.8" height="408.8" rx="23.4" fill="white" stroke="#EFEFEF" stroke-width="1.2"/>
<g id="Share icon">
<g id="Fill" filter="url(#filter0_d_0_1)">
<rect x="52" y="6" width="32" height="32" rx="8" fill="#171717"/>
</g>
</g>
<g id="Favorite icon">
<g id="Fill_2" filter="url(#filter1_d_0_1)">
<rect x="10" y="6" width="32" height="32" rx="8" fill="#FF4415"/>
</g>
<path id="Vector" d="M25.4141 17.1753L25.9998 17.9073L26.5854 17.1753C26.6468 17.0985 26.6878 17.0442 26.7201 17.0014C26.7692 16.9363 26.7981 16.8981 26.8481 16.8481C28.3122 15.384 30.6873 15.384 32.1514 16.8481C33.6132 18.3098 33.6155 20.6796 32.1585 22.1443L25.9998 27.9676L19.841 22.1443C18.384 20.6796 18.3863 18.3098 19.8481 16.8481C21.3122 15.384 23.6873 15.384 25.1514 16.8481C25.2014 16.8981 25.2303 16.9363 25.2794 17.0014C25.3117 17.0442 25.3527 17.0985 25.4141 17.1753Z" stroke="white" stroke-width="1.5"/>
</g>
</g>
</g>
</g>
</g>
<defs>
<filter id="filter0_d_0_1" x="42" y="0" width="52" height="52" filterUnits="userSpaceOnUse" color-interpolation-filters="sRGB">
<feFlood flood-opacity="0" result="BackgroundImageFix"/>
<feColorMatrix in="SourceAlpha" type="matrix" values="0 0 0 0 0 0 0 0 0 0 0 0 0 0 0 0 0 0 127 0" result="hardAlpha"/>
<feOffset dy="4"/>
<feGaussianBlur stdDeviation="5"/>
<feColorMatrix type="matrix" values="0 0 0 0 0 0 0 0 0 0 0 0 0 0 0 0 0 0 0.05 0"/>
<feBlend mode="normal" in2="BackgroundImageFix" result="effect1_dropShadow_0_1"/>
<feBlend mode="normal" in="SourceGraphic" in2="effect1_dropShadow_0_1" result="shape"/>
</filter>
<filter id="filter1_d_0_1" x="0" y="0" width="52" height="52" filterUnits="userSpaceOnUse" color-interpolation-filters="sRGB">
<feFlood flood-opacity="0" result="BackgroundImageFix"/>
<feColorMatrix in="SourceAlpha" type="matrix" values="0 0 0 0 0 0 0 0 0 0 0 0 0 0 0 0 0 0 127 0" result="hardAlpha"/>
<feOffset dy="4"/>
<feGaussianBlur stdDeviation="5"/>
<feColorMatrix type="matrix" values="0 0 0 0 0 0 0 0 0 0 0 0 0 0 0 0 0 0 0.05 0"/>
<feBlend mode="normal" in2="BackgroundImageFix" result="effect1_dropShadow_0_1"/>
<feBlend mode="normal" in="SourceGraphic" in2="effect1_dropShadow_0_1" result="shape"/>
</filter>
<clipPath id="clip0_0_1">
<rect width="1440" height="7220" fill="white" transform="translate(-386 -2656)"/>
</clipPath>
</defs>
</svg>
